# xmcd CD database file
#
# Track frame offsets:
#	150
#	15999
#	33206
#	47747
#	65846
#	83576
#	97944
#	112645
#	137160
#	148315
#	166629
#	177597
#
# Disc length: 2623 seconds
#
# Revision: 0
# Processed by: cddbd v1.5.2PL0 Copyright (c) Steve Scherf et al.
# Submitted via: CDex 1.72
#
DISCID=920a3d0c
DTITLE=Kat Baloun and Tomi Leino Trio - She's GotIt!
DYEAR=2013
DGENRE=Blues
TTITLE0=Mean Old Man
TTITLE1=5-10-15 Hours
TTITLE2=Keeo It To Myself
TTITLE3=There Is Something On Your Mind
TTITLE4=Cry For Me Baby
TTITLE5=It's So Fine
TTITLE6=Where Were You
TTITLE7=Can't Hold Out Much Longer
TTITLE8=Somewhere Down The Line
TTITLE9=Ain't No Hurry To Go Home
TTITLE10=Too Late
TTITLE11=Take Me Back
EXTD=YEAR: 2013
EXTT0=
EXTT1=
EXTT2=
EXTT3=
EXTT4=
EXTT5=
EXTT6=
EXTT7=
EXTT8=
EXTT9=
EXTT10=
EXTT11=
PLAYORDER=
